<?xml version="1.0" standalone="no"?>
<!DOCTYPE svg PUBLIC "-//W3C//DTD SVG 20010904//EN"
 "http://www.w3.org/TR/2001/REC-SVG-20010904/DTD/svg10.dtd">
<svg version="1.0" xmlns="http://www.w3.org/2000/svg"
 width="694.000000pt" height="233.000000pt" viewBox="0 0 694.000000 233.000000"
 preserveAspectRatio="xMidYMid meet">
<metadata>
Created by potrace 1.15, written by Peter Selinger 2001-2017
</metadata>
<g transform="translate(0.000000,233.000000) scale(0.100000,-0.100000)"
fill="#000000" stroke="none">
<path d="M1369 2214 c-202 -36 -389 -134 -546 -287 -204 -198 -309 -436 -320
-727 -6 -155 15 -284 68 -420 90 -235 290 -455 514 -567 457 -229 1010 -102
1320 302 294 385 294 914 -1 1301 -161 212 -395 352 -663 399 -102 18 -270 18
-372 -1z m-289 -824 c19 -5 48 -18 63 -28 27 -19 27 -19 9 -42 l-18 -22 -39
21 c-111 59 -251 -14 -263 -138 -13 -142 136 -244 260 -178 l46 26 18 -21 c18
-19 18 -20 -1 -35 -92 -70 -235 -60 -319 23 -62 61 -85 177 -51 257 47 112
174 171 295 137z m377 -5 c54 -16 112 -65 139 -117 59 -114 -1 -274 -122 -324
-42 -18 -135 -18 -177 -1 -196 83 -189 380 10 441 62 19 89 19 150 1z m423
-10 c49 -25 70 -62 70 -121 0 -44 -5 -59 -27 -84 -16 -17 -45 -37 -65 -43
l-37 -13 85 -92 86 -92 -39 0 c-36 0 -46 7 -132 95 -52 52 -95 95 -97 95 -1 0
-2 -42 -1 -92 l2 -93 -27 -3 c-16 -2 -29 0 -29 5 -1 4 -2 108 -3 231 l-1 222
93 0 c63 0 102 -5 122 -15z m180 -141 c0 -178 9 -212 65 -238 44 -21 73 -20
113 4 53 32 62 69 62 240 l0 150 30 0 30 0 0 -162 c0 -137 -3 -169 -19 -204
-61 -135 -278 -129 -330 9 -6 16 -11 101 -11 193 l0 164 30 0 30 0 0 -156z"/>
<path d="M1727 1334 c-6 -12 1 -152 8 -165 4 -5 19 -7 33 -5 15 2 37 5 50 5
35 1 72 44 72 84 0 56 -27 80 -97 85 -33 2 -63 0 -66 -4z"/>
<path d="M2908 1093 c-3 -4 -4 -50 -4 -102 1 -65 5 -96 14 -99 8 -2 12 10 12
42 0 42 2 46 25 46 19 0 29 -9 44 -39 21 -39 60 -69 46 -34 -26 64 -27 73 -11
89 20 19 21 68 2 83 -17 14 -122 26 -128 14z"/>
<path d="M3340 1050 c-8 -5 -30 -10 -47 -10 -41 0 -70 -38 -54 -69 6 -11 7
-22 3 -25 -14 -9 -11 -94 3 -106 23 -19 96 -8 112 17 13 19 12 24 -6 42 -13
13 -34 21 -56 21 -19 0 -35 5 -35 10 0 6 13 10 28 10 38 0 66 31 58 64 -3 14
-1 26 6 28 6 2 9 9 7 16 -3 8 -9 8 -19 2z"/>
<path d="M4193 1043 c-52 -5 -62 -20 -59 -88 1 -27 -2 -58 -7 -68 -13 -28 18
-57 60 -57 47 0 73 16 73 45 0 28 -26 45 -69 45 -17 0 -31 5 -31 10 0 6 13 10
29 10 35 0 54 21 53 60 0 17 4 30 9 30 5 0 9 5 9 10 0 6 -6 9 -12 8 -7 -1 -32
-3 -55 -5z"/>
<path d="M4460 680 c0 -82 3 -100 15 -100 11 0 15 11 15 40 l0 40 44 0 c50 0
67 15 68 61 1 43 -23 59 -89 59 l-53 0 0 -100z"/>
<path d="M3102 714 c-17 -11 -22 -25 -22 -57 0 -47 6 -59 34 -74 27 -15 73 3
82 30 13 40 6 81 -17 99 -26 22 -48 23 -77 2z"/>
<path d="M4750 710 c-27 -27 -27 -90 0 -115 24 -22 67 -23 88 -1 26 26 22 94
-7 117 -30 24 -56 24 -81 -1z"/>
<path d="M5530 710 c-26 -26 -27 -90 -2 -113 22 -20 75 -22 91 -3 6 7 12 32
13 56 1 34 -3 47 -21 62 -30 23 -56 23 -81 -2z"/>
</g>
</svg>
